<svg xmlns="http://www.w3.org/2000/svg" version="1.1" viewBox="0 0 2048 2048" width="1280" height="1280">
    <path transform="translate(997,346)" d="m0 0h53l33 2 34 4 29 5 31 7 29 8 29 10 29 12 29 14 18 10 21 13 16 11 16 12 16 13 10 9 8 7 26 26 9 11 8 9 13 17 12 17 14 22 14 25 14 29 13 33 9 27 8 30 6 27 6 39 3 30 1 17v62l-2 29-4 33-6 34-7 30-11 36-11 29-12 27-10 20-14 24-9 14-14 20-11 14-9 11-9 10-7 8-26 26-11 9-9 8-17 13-17 12-19 12-21 12-23 12-25 11-29 11-32 10-38 9-34 6-35 4-33 2h-51l-33-2-35-4-35-6-30-7-34-10-25-9-26-11-29-14-23-13-23-15-14-10-16-12-15-13-10-9-13-12-9-9-7-8-11-12-8-10-13-17-14-20-15-25-13-24-14-30-11-29-9-28-7-26-7-34-5-35-3-34-1-29v-27l2-36 4-35 5-30 8-36 9-30 8-23 12-29 14-29 13-23 16-25 12-16 11-14 11-13 9-10 12-13 8-8 8-7 12-11 14-11 18-14 18-12 21-13 26-14 30-14 26-10 30-10 34-9 36-7 37-5 23-2zm5 250-25 3-24 5-20 6-20 8-23 12-15 10-13 10-12 11-15 15-11 14-14 21-14 27-9 23-8 27-5 25-3 24-1 13v46l3 30 6 31 7 24 7 19 9 20 12 21 10 14 11 14 15 16 11 10 13 10 15 10 18 10 23 10 23 7 23 5 25 3h45l24-3 27-6 24-8 29-14 16-10 17-13 12-11 8-7 7-8 10-12 12-17 12-21 9-19 7-18 7-24 5-23 3-20 2-26v-34l-3-34-5-28-7-25-7-20-11-24-12-21-13-18-13-15-16-16-14-11-14-10-19-11-17-8-22-8-24-6-25-4-10-1z" fill="#BFEF00"/>
    <path transform="translate(535,1519)" d="m0 0h280l9 27 10 21 12 18 9 11 16 16 13 10 13 8 19 10 21 8 22 6 22 4 18 2 17 1h24l24-2 18-3 24-6 21-8 16-8 15-9 13-10 12-11 7-7 11-14 9-14 11-21 9-25 2-4h277l-1 12-9 40-11 36-11 29-9 20-12 24-10 17-14 21-12 16-9 11-12 14-22 22-8 7-17 14-17 12-17 11-21 12-16 8-19 9-29 11-25 8-36 9-32 6-40 5-27 2-26 1h-32l-27-1-36-3-37-5-36-7-28-7-35-11-28-11-26-12-21-11-20-12-19-13-12-9-10-8-13-11-15-14-12-12-7-8-11-13-15-20-13-20-12-21-8-16-8-17-10-26-9-29-7-29-5-28z" fill="#BFEF00"/>
    <path transform="translate(1433,115)" d="m0 0h26l16 3 16 6 15 8 10 8 10 9 11 14 9 17 6 18 2 12v26l-3 16-6 16-7 13-9 12-9 10-13 10-14 8-15 6-20 4h-24l-16-3-17-6-16-9-11-9-12-12-9-13-8-16-5-16-2-12v-24l4-20 6-15 6-11 9-12 9-10 13-10 14-8 15-6 12-3z" fill="#BFEF00"/>
</svg>